<?xml version="1.0" encoding="UTF-8"?>
<svg id="Capa_1" data-name="Capa 1" xmlns="http://www.w3.org/2000/svg" viewBox="0 0 1920 1080">
  <defs>
    <style>
      .cls-1 {
        fill: none;
        stroke: #fff;
        stroke-miterlimit: 10;
        stroke-width: 1.56px;
      }

      .cls-2 {
        fill: #fff;
      }

      .cls-3 {
        fill: #f87604;
      }

      .cls-4 {
        fill: #202020;
      }
    </style>
  </defs>
  <g>
    <path class="cls-3" d="M1097.8,471.4h-302.04c.86-67.86,74.69-125.23,142.8-129.56v-9.41c-6.41-3.07-10.84-9.68-10.84-17.3,0-10.59,8.53-19.18,19.07-19.18s19.08,8.59,19.08,19.18c0,7.62-4.43,14.21-10.84,17.3v9.39c68.7,4.28,142.78,61.09,142.78,129.57Z"/>
    <path class="cls-2" d="M850.5,463.29s5.31-62.47,63.74-95.57c0,0-76.49,6.41-84.98,95.57h21.25Z"/>
    <path class="cls-4" d="M1159.34,486.79c-1.05,18.68-16.57,33.62-35.42,33.62h-136.98c-15.37,0-18.76,39.39-19.48,53.06-.08,1.51.73,2.93,2.08,3.61l50.73,25.93h-139.16l50.53-25.84c1.34-.69,2.15-2.1,2.08-3.61-.7-13.58-4.08-53.15-19.48-53.15h-138.44c-18.85,0-34.37-14.95-35.42-33.62h418.96Z"/>
    <line class="cls-1" x1="1159.34" y1="486.79" x2="740.37" y2="486.79"/>
    <polygon class="cls-4" points="837.83 247.27 837.83 309.3 815.12 309.3 815.12 272.46 756.57 272.46 756.57 337.42 793.45 337.42 793.45 362.59 733.85 362.59 733.85 247.27 837.83 247.27"/>
    <polygon class="cls-4" points="1063.1 247.27 1063.1 309.3 1085.8 309.3 1085.8 272.46 1144.36 272.46 1144.36 337.42 1107.47 337.42 1107.47 362.59 1167.07 362.59 1167.07 247.27 1063.1 247.27"/>
    <polygon class="cls-4" points="1166.88 539.91 1166.88 613.76 1062.9 613.76 1062.9 551.73 1085.6 551.73 1085.6 588.57 1144.16 588.57 1144.16 539.91 1166.88 539.91"/>
    <polygon class="cls-4" points="733.73 539.91 733.73 613.76 837.7 613.76 837.7 551.73 815 551.73 815 588.57 756.45 588.57 756.45 539.91 733.73 539.91"/>
    <rect class="cls-4" x="870.02" y="247.27" width="25.4" height="25.53"/>
    <rect class="cls-4" x="733.85" y="389.98" width="25.4" height="25.53"/>
    <rect class="cls-4" x="1141.48" y="389.98" width="25.4" height="25.53"/>
    <rect class="cls-4" x="1006.66" y="247.27" width="25.4" height="25.53"/>
  </g>
  <g>
    <path d="M706.88,747.95l-58.53,80.3h-17.23l-49.78-79.18-8.75,81.64h-40.48l13.67-156.8,33.64-.22,64,100.21,72.2-100.21,27.07.22,13.95,156.8h-40.2l-9.57-82.76Z"/>
    <path d="M814.1,673.91h134.28v32.21h-91.62c0,10.29-.27,20.58-.27,31.09h77.67v31.32h-77.4v29.75h94.63v32.43h-137.56l.27-156.8Z"/>
    <path d="M1078.83,832.73c-27.35,0-44.85-6.26-73.02-22.37l13.13-30.42c26.8,12.97,43.76,19.68,57.16,19.68,18.87,0,41.29-5.59,41.29-18.12,0-13.65-28.44-15.21-40.48-16.33-31.18-3.13-71.93-8.95-71.93-45.63,0-41.38,47.59-49.66,75.21-49.66,25.44,0,48.41,6.71,73.29,21.25l-12.58,28.41c-21.33-11.41-41.84-16.77-60.72-16.77-29.26,0-36.1,9.62-36.1,15.43,0,11.18,31.45,13.65,39.93,13.65,28.72,2.46,73.02,6.93,73.02,49.66s-48.41,51.22-78.22,51.22Z"/>
    <path d="M1331.82,801.41h-76.03l-14.49,29.3h-41.84l79.58-157.25h32.82l76.03,157.25h-42.94l-13.13-29.3ZM1270.28,769.65h47.04l-23.25-49.21-23.79,49.21Z"/>
  </g>
</svg>